<svg width="12" height="12" viewBox="0 0 12 12" fill="none" xmlns="http://www.w3.org/2000/svg">
<path d="M9.65625 6C9.94792 6 10.1875 5.90625 10.375 5.71875C10.5625 5.51042 10.6562 5.27083 10.6562 5C10.6562 4.72917 10.5625 4.5 10.375 4.3125C10.1875 4.10417 9.94792 4 9.65625 4C9.38542 4 9.14583 4.10417 8.9375 4.3125C8.75 4.5 8.65625 4.72917 8.65625 5C8.65625 5.27083 8.75 5.51042 8.9375 5.71875C9.14583 5.90625 9.38542 6 9.65625 6ZM7.65625 3.34375C7.94792 3.34375 8.1875 3.25 8.375 3.0625C8.5625 2.85417 8.65625 2.61458 8.65625 2.34375C8.65625 2.05208 8.5625 1.8125 8.375 1.625C8.1875 1.4375 7.94792 1.34375 7.65625 1.34375C7.38542 1.34375 7.14583 1.4375 6.9375 1.625C6.75 1.8125 6.65625 2.05208 6.65625 2.34375C6.65625 2.61458 6.75 2.85417 6.9375 3.0625C7.14583 3.25 7.38542 3.34375 7.65625 3.34375ZM4.34375 3.34375C4.61458 3.34375 4.84375 3.25 5.03125 3.0625C5.23958 2.85417 5.34375 2.61458 5.34375 2.34375C5.34375 2.05208 5.23958 1.8125 5.03125 1.625C4.84375 1.4375 4.60417 1.34375 4.3125 1.34375C4.04167 1.34375 3.8125 1.4375 3.625 1.625C3.4375 1.8125 3.34375 2.05208 3.34375 2.34375C3.34375 2.61458 3.4375 2.85417 3.625 3.0625C3.8125 3.25 4.05208 3.34375 4.34375 3.34375ZM2.34375 6C2.61458 6 2.84375 5.90625 3.03125 5.71875C3.23958 5.51042 3.34375 5.27083 3.34375 5C3.34375 4.72917 3.23958 4.5 3.03125 4.3125C2.84375 4.10417 2.60417 4 2.3125 4C2.04167 4 1.8125 4.10417 1.625 4.3125C1.4375 4.5 1.34375 4.72917 1.34375 5C1.34375 5.27083 1.4375 5.51042 1.625 5.71875C1.8125 5.90625 2.05208 6 2.34375 6ZM6 0C7.08333 0 8.08333 0.239583 9 0.71875C9.91667 1.19792 10.6458 1.84375 11.1875 2.65625C11.7292 3.46875 12 4.36458 12 5.34375C12 5.94792 11.8438 6.51042 11.5312 7.03125C11.2396 7.53125 10.8333 7.92708 10.3125 8.21875C9.8125 8.51042 9.26042 8.65625 8.65625 8.65625H7.5C7.20833 8.65625 6.96875 8.76042 6.78125 8.96875C6.59375 9.15625 6.5 9.38542 6.5 9.65625C6.5 9.90625 6.58333 10.1354 6.75 10.3438C6.91667 10.5312 7 10.7604 7 11.0312C7 11.2812 6.89583 11.5104 6.6875 11.7188C6.5 11.9062 6.27083 12 6 12C4.91667 12 3.91667 11.7292 3 11.1875C2.08333 10.6458 1.35417 9.91667 0.8125 9C0.270833 8.08333 0 7.08333 0 6C0 4.91667 0.270833 3.91667 0.8125 3C1.35417 2.08333 2.08333 1.35417 3 0.8125C3.91667 0.270833 4.91667 0 6 0Z" fill="black" fill-opacity="0.6"/>
</svg>
