<svg width="18" height="18" viewBox="0 0 18 18" fill="none" xmlns="http://www.w3.org/2000/svg">
<path d="M6.75 9.98828C6.75 9.37891 6.96094 8.85156 7.38281 8.40625C7.82812 7.96094 8.36719 7.73828 9 7.73828C9.63281 7.73828 10.1602 7.96094 10.582 8.40625C11.0273 8.85156 11.25 9.39062 11.25 10.0234C11.25 10.6328 11.0273 11.1602 10.582 11.6055C10.1602 12.0273 9.63281 12.2383 9 12.2383C8.36719 12.2383 7.82812 12.0273 7.38281 11.6055C6.96094 11.1602 6.75 10.6211 6.75 9.98828ZM15.0117 14.9453L12.1289 12.0625C12.5508 11.4297 12.7617 10.7383 12.7617 9.98828C12.7617 9.30859 12.5859 8.6875 12.2344 8.125C11.9062 7.53906 11.4492 7.08203 10.8633 6.75391C10.3008 6.42578 9.67969 6.26172 9 6.26172C8.50781 6.26172 8.02734 6.35547 7.55859 6.54297C7.11328 6.73047 6.71484 7 6.36328 7.35156C6.01172 7.70312 5.73047 8.11328 5.51953 8.58203C5.33203 9.02734 5.23828 9.50781 5.23828 10.0234C5.23828 10.5156 5.33203 10.9961 5.51953 11.4648C5.73047 11.9102 6.01172 12.3086 6.36328 12.6602C6.71484 13.0117 7.11328 13.2812 7.55859 13.4688C8.02734 13.6562 8.50781 13.75 9 13.75C9.75 13.75 10.4414 13.5391 11.0742 13.1172L14.3789 16.457C14.1211 16.6445 13.8281 16.7383 13.5 16.7383H4.5C4.07812 16.7383 3.71484 16.5859 3.41016 16.2812C3.12891 16 2.98828 15.6602 2.98828 15.2617V3.23828C2.98828 2.83984 3.12891 2.5 3.41016 2.21875C3.71484 1.91406 4.07812 1.76172 4.5 1.76172H10.5117L15.0117 6.26172V14.9453Z" fill="white" fill-opacity="0.6"/>
</svg>
