<svg width="20" height="20" viewBox="0 0 20 20" fill="none" xmlns="http://www.w3.org/2000/svg">
<path d="M9.99999 3C10.9552 3 11.7739 3.34113 12.4562 4.0234C13.1384 4.70566 13.4795 5.53801 13.4795 6.52047C13.4795 7.47564 13.1384 8.29435 12.4562 8.97661C11.7739 9.65889 10.9552 9.99999 9.99999 9.99999C9.04483 9.99999 8.22612 9.65889 7.54386 8.97661C6.8616 8.29435 6.52047 7.47564 6.52047 6.52047C6.52047 5.53801 6.8616 4.70566 7.54386 4.0234C8.22612 3.34113 9.04483 3 9.99999 3ZM9.99999 4.76023C9.50877 4.76023 9.08576 4.93762 8.73099 5.2924C8.4035 5.61988 8.23976 6.02924 8.23976 6.52047C8.23976 6.98441 8.4035 7.39376 8.73099 7.74853C9.08576 8.07602 9.50877 8.23976 9.99999 8.23976C10.4913 8.23976 10.9006 8.07602 11.2281 7.74853C11.5828 7.39376 11.7602 6.98441 11.7602 6.52047C11.7602 6.02924 11.5828 5.61988 11.2281 5.2924C10.9006 4.93762 10.4913 4.76023 9.99999 4.76023ZM9.99999 10.8596C10.8733 10.8596 11.8285 10.9961 12.8655 11.269C14.039 11.5692 14.9805 11.9513 15.6901 12.4152C16.5633 12.9883 17 13.6433 17 14.3801V17H3V14.3801C3 13.6433 3.43665 12.9883 4.30994 12.4152C5.0195 11.9513 5.96101 11.5692 7.1345 11.269C8.17154 10.9961 9.1267 10.8596 9.99999 10.8596ZM9.99999 12.538C9.18128 12.538 8.33528 12.6471 7.46198 12.8655C6.69786 13.0838 6.04289 13.3431 5.49707 13.6433C4.95127 13.9434 4.67837 14.1891 4.67837 14.3801V15.3216H15.3216V14.3801C15.3216 14.1891 15.0487 13.9434 14.5029 13.6433C13.9571 13.3431 13.3021 13.0838 12.538 12.8655C11.6647 12.6471 10.8187 12.538 9.99999 12.538Z" fill="black" fill-opacity="0.6"/>
</svg>
